#N canvas 1961 75 1699 1450 12;
#X obj 149 698 bng 20 250 50 0 empty empty empty 0 -10 0 12 #fcfcfc #000000 #000000;
#X obj 181 699 bng 20 250 50 0 empty empty empty 0 -10 0 12 #fcfcfc #000000 #000000;
#X obj 213 699 bng 20 250 50 0 empty empty empty 0 -10 0 12 #fcfcfc #000000 #000000;
#X obj 245 699 bng 20 250 50 0 empty empty empty 0 -10 0 12 #fcfcfc #000000 #000000;
#X obj 277 699 bng 20 250 50 0 empty empty empty 0 -10 0 12 #fcfcfc #000000 #000000;
#X obj 309 699 bng 20 250 50 0 empty empty empty 0 -10 0 12 #fcfcfc #000000 #000000;
#X obj 253 1212 cnv 15 118 17 empty empty empty 20 12 0 14 #fc8000 #404040 0;
#N canvas 561 960 423 472 control-messages 0;
#X obj 70 439 outlet;
#X floatatom 70 12 5 -1 1 0 - - - 0;
#X msg 70 56 speaker-1 \$1 \$2;
#X obj 70 35 pack 0 0;
#X floatatom 115 12 5 -1 1 0 - - - 0;
#X text 140 33 speaker position x \, y (-1 \, 1);
#X msg 93 90 speaker-2 \$1 \$2;
#X msg 94 110 speaker-3 \$1 \$2;
#X msg 94 130 speaker-4 \$1 \$2;
#X msg 94 150 speaker-5 \$1 \$2;
#X msg 94 170 speaker-6 \$1 \$2;
#X msg 94 190 speaker-7 \$1 \$2;
#X msg 94 210 speaker-8 \$1 \$2;
#X msg 146 283 cos;
#X msg 147 311 sqrt;
#X text 145 255 panning laws:;
#X text 176 282 sine/cosine;
#X text 182 310 square root;
#X msg 144 350 preset 0;
#X msg 144 373 preset 1;
#X text 207 349 8-ch. circle stereo pairs;
#X text 207 372 8-ch. circle center speaker;
#X obj 144 414 cnv 16 87 16 empty empty empty 20 12 0 14 #fc8000 #404040 0;
#N canvas 864 246 634 307 save&recall 0;
#X obj 93 233 outlet;
#X msg 93 60 0;
#X msg 125 60 1;
#X msg 158 60 2;
#X msg 93 99 save \$1;
#X text 185 63 ...;
#X msg 207 60 20;
#X msg 149 154 0;
#X msg 181 154 1;
#X msg 214 154 2;
#X text 241 157 ...;
#X msg 263 154 20;
#X msg 149 193 recall \$1;
#X text 249 93 save & recall up to 20 presets \, presets will be saved with the parrent patch;
#X connect 1 0 4 0;
#X connect 2 0 4 0;
#X connect 3 0 4 0;
#X connect 4 0 0 0;
#X connect 6 0 4 0;
#X connect 7 0 12 0;
#X connect 8 0 12 0;
#X connect 9 0 12 0;
#X connect 11 0 12 0;
#X connect 12 0 0 0;
#X restore 144 413 pd save&recall;
#X connect 1 0 3 0;
#X connect 2 0 0 0;
#X connect 3 0 2 0;
#X connect 4 0 3 1;
#X connect 13 0 0 0;
#X connect 14 0 0 0;
#X connect 18 0 0 0;
#X connect 19 0 0 0;
#X connect 23 0 0 0;
#X restore 253 1212 pd control-messages;
#X obj 135 1112 hsl 100 12 -1 1 0 0 empty empty empty -2 -8 0 10 #fcfcfc #000000 #000000 0 1;
#X floatatom 132 1174 5 0 0 0 - - - 0;
#X obj 132 1194 sig~;
#X obj 179 1066 vsl 12 100 -1 1 0 0 empty empty empty 0 -9 0 10 #fcfcfc #000000 #000000 0 1;
#X floatatom 178 1174 5 0 0 0 - - - 0;
#X obj 178 1194 sig~;
#X text 139 1156 x;
#X text 197 1157 y;
#X floatatom 220 1175 5 -1 1 0 - - - 0;
#X obj 220 1195 sig~;
#N canvas 740 960 503 292 message-out 0;
#X obj 30 33 inlet;
#X msg 30 60 speaker-1 -0.42623 0.909836 \, speaker-2 0.418033 0.909836 \, speaker-3 -0.909836 0.426229 \, speaker-4 0.901639 0.426229 \, speaker-5 -0.909836 -0.418033 \, speaker-6 0.901639 -0.418033 \, speaker-7 -0.42623 -0.901639 \, speaker-8 0.418033 -0.901639 \, cos \,;
#X connect 0 0 1 0;
#X restore 253 1276 pd message-out;
#X obj 105 1235 pp.spat8~;
#A saved;
#X obj 104 1317 pp.out-8~;
#A saved;
#X obj 868 1214 loadbang;
#X obj 868 1236 tgl 15 0 empty empty empty 17 7 0 10 #fcfcfc #000000 #000000 0 1;
#X obj 818 1295 snapshot~;
#X floatatom 818 1318 5 0 0 0 - - - 0;
#X obj 868 1256 metro 10;
#X obj 121 1032 vcf~;
#X msg 224 1005 5;
#X obj 224 977 loadbang;
#X obj 163 966 +~ 2;
#X obj 514 1213 loadbang;
#X obj 514 1235 tgl 15 0 empty empty empty 17 7 0 10 #fcfcfc #000000 #000000 0 1;
#X obj 447 1292 snapshot~;
#X floatatom 447 1315 5 0 0 0 - - - 0;
#X obj 514 1255 metro 10;
#X obj 163 996 *~ 5000;
#X obj 446 892 osc~ 0.5;
#X obj 103 982 adc~ 1;
#X obj 457 375 tgl 40 0 empty empty empty 0 -10 0 12 #fcfcfc #000000 #000000 0 1;
#X obj 457 466 bng 19 250 50 0 empty empty empty 0 -10 0 12 #fcfcfc #000000 #000000;
#X obj 457 522 s click;
#X msg 576 495 248;
#X obj 576 519 midiout;
#X text 572 546 MIDI Clock;
#X text 413 546 Pd (internal) clock;
#X text 479 466 16ths;
#X obj 175 85 r click;
#X obj 175 109 f;
#X obj 175 133 + 1;
#X floatatom 175 157 5 0 0 0 - - - 0;
#X obj 175 180 % 4;
#X floatatom 175 204 5 0 0 0 - - - 0;
#X obj 90 257 sel 0 2;
#X obj 90 317 bng 19 250 50 0 empty empty empty 0 -10 0 12 #fcfcfc #000000 #000000;
#X obj 89 378 spigot;
#X obj 268 161 random 30;
#X obj 268 185 sel 0;
#X obj 268 209 bng 19 250 50 0 empty empty empty 0 -10 0 12 #fcfcfc #000000 #000000;
#X obj 268 233 random 2;
#X obj 268 257 - 1;
#X obj 268 281 abs;
#X obj 215 378 spigot;
#X obj 130 287 delay 15;
#X obj 130 317 bng 19 250 50 0 empty empty empty 0 -10 0 12 #fcfcfc #000000 #000000;
#X obj 149 412 bng 19 250 50 0 empty empty empty 0 -10 0 12 #fcfcfc #000000 #000000;
#X obj 149 488 spigot;
#X obj 215 301 sel 0;
#X obj 307 256 sel 0 1;
#X msg 307 280 260;
#X msg 346 280 100;
#X obj 325 312 s notelength;
#X obj 268 351 tgl 19 0 empty empty empty 0 -10 0 12 #fcfcfc #000000 #000000 0 1;
#X text 296 210 Randomly switch between quarters and eights;
#X text 334 233 0 = eights \, 1 = quarters;
#X text 381 277 note lengths;
#X text 292 349 quarters;
#X obj 128 352 tgl 19 0 empty empty empty 0 -10 0 12 #fcfcfc #000000 #000000 0 1;
#X text 152 351 eights;
#X obj 188 463 tgl 19 0 empty empty empty 0 -10 0 12 #fcfcfc #000000 #000000 0 1;
#X text 212 464 randomly skip some beats;
#X obj 149 512 bng 19 250 50 0 empty empty empty 0 -10 0 12 #fcfcfc #000000 #000000;
#X obj 149 536 f;
#X obj 149 560 + 1;
#X floatatom 149 584 5 0 0 0 - - - 0;
#X obj 149 607 % 6;
#X floatatom 149 631 5 0 0 0 - - - 0;
#X obj 254 493 r click;
#X obj 254 517 random 20;
#X obj 254 541 sel 0;
#X obj 254 565 bng 19 250 50 0 empty empty empty 0 -10 0 12 #fcfcfc #000000 #000000;
#X msg 254 589 -1;
#X obj 254 613 s reset;
#X obj 188 510 r reset;
#X msg 277 746 36;
#X msg 213 745 24;
#X msg 309 746 30;
#X msg 245 746 30;
#X obj 309 828 makenote 100 50;
#X obj 411 798 r notelength;
#X obj 584 688 r click;
#X obj 584 736 sel 0;
#X obj 584 760 bng 19 250 50 0 empty empty empty 0 -10 0 12 #fcfcfc #000000 #000000;
#X obj 584 787 f;
#X obj 584 712 random 10;
#X obj 584 814 makenote 100 10;
#N canvas 0 50 450 250 (subpatch) 0;
#X text 0 0 plugdatainfo <?xml version="1.0" encoding="UTF-8"?> <plugdatainfo/>;
#X coords 0 1 100 -1 1 1 1;
#X restore 0 0 graph;
#X obj 309 868 noteout 2;
#X obj 457 432 metro 500;
#X obj 149 658 sel 0 1 2 3 4 5 6 7 8 9 10 11 12 13 14 15 16;
#X msg 373 747 36;
#X msg 469 747 36;
#X msg 405 746 24;
#X msg 341 746 30;
#X msg 501 747 30;
#X msg 437 747 30;
#X msg 149 745 48;
#X msg 181 746 50;
#X obj 188 439 random 20;
#X obj 584 856 noteout 3;
#X connect 0 0 115 0;
#X connect 1 0 116 0;
#X connect 2 0 94 0;
#X connect 3 0 96 0;
#X connect 4 0 93 0;
#X connect 5 0 95 0;
#X connect 7 0 19 4;
#X connect 8 0 9 0;
#X connect 9 0 10 0;
#X connect 10 0 19 1;
#X connect 11 0 12 0;
#X connect 12 0 13 0;
#X connect 13 0 19 2;
#X connect 16 0 17 0;
#X connect 17 0 19 3;
#X connect 19 0 20 0;
#X connect 19 1 20 1;
#X connect 19 2 20 2;
#X connect 19 3 20 3;
#X connect 19 4 20 4;
#X connect 19 5 20 5;
#X connect 19 6 20 6;
#X connect 19 7 20 7;
#X connect 19 8 18 0;
#X connect 21 0 22 0;
#X connect 22 0 25 0;
#X connect 23 0 24 0;
#X connect 25 0 23 0;
#X connect 27 0 26 2;
#X connect 28 0 27 0;
#X connect 29 0 35 0;
#X connect 30 0 31 0;
#X connect 31 0 34 0;
#X connect 32 0 33 0;
#X connect 34 0 32 0;
#X connect 35 0 26 1;
#X connect 36 0 29 0;
#X connect 36 0 23 0;
#X connect 36 0 32 0;
#X connect 37 0 19 0;
#X connect 38 0 107 0;
#X connect 39 0 40 0;
#X connect 39 0 41 0;
#X connect 41 0 42 0;
#X connect 46 0 47 0;
#X connect 46 0 55 0;
#X connect 47 0 48 0;
#X connect 48 0 49 0;
#X connect 48 0 47 1;
#X connect 49 0 50 0;
#X connect 50 0 51 0;
#X connect 51 0 52 0;
#X connect 51 0 66 0;
#X connect 52 0 53 0;
#X connect 52 1 62 0;
#X connect 53 0 54 0;
#X connect 54 0 64 0;
#X connect 55 0 56 0;
#X connect 56 0 57 0;
#X connect 57 0 58 0;
#X connect 58 0 59 0;
#X connect 58 0 67 0;
#X connect 58 0 76 0;
#X connect 59 0 60 0;
#X connect 60 0 71 0;
#X connect 61 0 64 0;
#X connect 62 0 63 0;
#X connect 63 0 54 0;
#X connect 64 0 65 0;
#X connect 64 0 117 0;
#X connect 65 0 80 0;
#X connect 66 0 61 0;
#X connect 67 0 68 0;
#X connect 67 1 69 0;
#X connect 68 0 70 0;
#X connect 69 0 70 0;
#X connect 71 0 61 1;
#X connect 76 0 54 1;
#X connect 78 0 65 1;
#X connect 80 0 81 0;
#X connect 81 0 82 0;
#X connect 82 0 83 0;
#X connect 82 0 81 1;
#X connect 83 0 84 0;
#X connect 84 0 85 0;
#X connect 85 0 108 0;
#X connect 86 0 87 0;
#X connect 87 0 88 0;
#X connect 88 0 89 0;
#X connect 89 0 90 0;
#X connect 90 0 91 0;
#X connect 92 0 81 1;
#X connect 93 0 97 0;
#X connect 93 0 102 1;
#X connect 94 0 97 0;
#X connect 94 0 102 1;
#X connect 95 0 97 0;
#X connect 95 0 102 1;
#X connect 96 0 97 0;
#X connect 96 0 102 1;
#X connect 97 0 106 0;
#X connect 97 1 106 1;
#X connect 98 0 97 2;
#X connect 99 0 103 0;
#X connect 100 0 101 0;
#X connect 101 0 102 0;
#X connect 102 0 104 0;
#X connect 103 0 100 0;
#X connect 104 0 118 0;
#X connect 104 1 118 1;
#X connect 107 0 39 0;
#X connect 108 0 0 0;
#X connect 108 1 1 0;
#X connect 108 2 2 0;
#X connect 108 3 3 0;
#X connect 108 4 4 0;
#X connect 108 5 5 0;
#X connect 115 0 97 0;
#X connect 115 0 102 1;
#X connect 116 0 97 0;
#X connect 116 0 102 1;
#X connect 117 0 78 0;
