#N canvas 2082 251 1064 993 12;
#X obj 308 346 makenote;
#X msg 334 292 100;
#X obj 148 82 bng 20 250 50 0 empty empty empty 0 -10 0 12 #fcfcfc
#000000 #000000;
#X obj 148 14 tgl 20 0 empty empty empty 0 -10 0 12 #fcfcfc #000000
#000000 0 1;
#X msg 361 317 50;
#X text 395 316 duration;
#X text 372 289 velocity;
#X obj 148 114 random 6;
#X floatatom 148 147 5 0 0 0 - - - 0;
#X obj 148 176 sel 0 1 2 3 4 5, f 28;
#X obj 148 216 bng 20 250 50 0 empty empty empty 0 -10 0 12 #fcfcfc
#000000 #000000;
#X obj 180 217 bng 20 250 50 0 empty empty empty 0 -10 0 12 #fcfcfc
#000000 #000000;
#X obj 212 217 bng 20 250 50 0 empty empty empty 0 -10 0 12 #fcfcfc
#000000 #000000;
#X obj 244 217 bng 20 250 50 0 empty empty empty 0 -10 0 12 #fcfcfc
#000000 #000000;
#X obj 276 217 bng 20 250 50 0 empty empty empty 0 -10 0 12 #fcfcfc
#000000 #000000;
#X obj 308 217 bng 20 250 50 0 empty empty empty 0 -10 0 12 #fcfcfc
#000000 #000000;
#X msg 148 263 60;
#X msg 180 263 62;
#X msg 212 263 64;
#X msg 244 264 67;
#X msg 276 264 69;
#X msg 308 264 72;
#X obj 381 235 loadbang;
#X obj 148 49 metro 1000;
#X obj 308 386 noteout 2;
#X obj 693 356 makenote;
#X msg 719 302 100;
#X obj 533 92 bng 20 250 50 0 empty empty empty 0 -10 0 12 #fcfcfc
#000000 #000000;
#X obj 533 24 tgl 20 0 empty empty empty 0 -10 0 12 #fcfcfc #000000
#000000 0 1;
#X msg 746 327 50;
#X text 780 326 duration;
#X text 757 299 velocity;
#X obj 533 124 random 6;
#X floatatom 533 157 5 0 0 0 - - - 0;
#X obj 533 186 sel 0 1 2 3 4 5, f 28;
#X obj 533 226 bng 20 250 50 0 empty empty empty 0 -10 0 12 #fcfcfc
#000000 #000000;
#X obj 565 227 bng 20 250 50 0 empty empty empty 0 -10 0 12 #fcfcfc
#000000 #000000;
#X obj 597 227 bng 20 250 50 0 empty empty empty 0 -10 0 12 #fcfcfc
#000000 #000000;
#X obj 629 227 bng 20 250 50 0 empty empty empty 0 -10 0 12 #fcfcfc
#000000 #000000;
#X obj 661 227 bng 20 250 50 0 empty empty empty 0 -10 0 12 #fcfcfc
#000000 #000000;
#X obj 693 227 bng 20 250 50 0 empty empty empty 0 -10 0 12 #fcfcfc
#000000 #000000;
#X msg 533 273 60;
#X msg 565 273 62;
#X msg 597 273 64;
#X msg 629 274 67;
#X msg 661 274 69;
#X msg 693 274 72;
#X obj 766 245 loadbang;
#X obj 533 59 metro 500;
#X obj 693 396 noteout 3;
#X connect 0 0 24 0;
#X connect 0 1 24 1;
#X connect 1 0 0 1;
#X connect 2 0 7 0;
#X connect 3 0 23 0;
#X connect 4 0 0 2;
#X connect 7 0 8 0;
#X connect 8 0 9 0;
#X connect 9 0 10 0;
#X connect 9 1 11 0;
#X connect 9 2 12 0;
#X connect 9 3 13 0;
#X connect 9 4 14 0;
#X connect 9 5 15 0;
#X connect 10 0 16 0;
#X connect 11 0 17 0;
#X connect 12 0 18 0;
#X connect 13 0 19 0;
#X connect 14 0 20 0;
#X connect 15 0 21 0;
#X connect 16 0 0 0;
#X connect 17 0 0 0;
#X connect 18 0 0 0;
#X connect 19 0 0 0;
#X connect 20 0 0 0;
#X connect 21 0 0 0;
#X connect 22 0 1 0;
#X connect 22 0 4 0;
#X connect 23 0 2 0;
#X connect 25 0 49 0;
#X connect 25 1 49 1;
#X connect 26 0 25 1;
#X connect 27 0 32 0;
#X connect 28 0 48 0;
#X connect 29 0 25 2;
#X connect 32 0 33 0;
#X connect 33 0 34 0;
#X connect 34 0 35 0;
#X connect 34 1 36 0;
#X connect 34 2 37 0;
#X connect 34 3 38 0;
#X connect 34 4 39 0;
#X connect 34 5 40 0;
#X connect 35 0 41 0;
#X connect 36 0 42 0;
#X connect 37 0 43 0;
#X connect 38 0 44 0;
#X connect 39 0 45 0;
#X connect 40 0 46 0;
#X connect 41 0 25 0;
#X connect 42 0 25 0;
#X connect 43 0 25 0;
#X connect 44 0 25 0;
#X connect 45 0 25 0;
#X connect 46 0 25 0;
#X connect 47 0 26 0;
#X connect 47 0 29 0;
#X connect 48 0 27 0;
