#N canvas 560 125 951 983 12;
#X obj 210 370 cnv 15 118 17 empty empty empty 20 12 0 14 #fc8000 #404040
0;
#N canvas 561 87 423 472 control-messages 0;
#X obj 70 439 outlet;
#X floatatom 70 12 5 -1 1 0 - - - 0;
#X msg 70 56 speaker-1 \$1 \$2;
#X obj 70 35 pack 0 0;
#X floatatom 115 12 5 -1 1 0 - - - 0;
#X text 140 33 speaker position x \, y (-1 \, 1);
#X msg 93 90 speaker-2 \$1 \$2;
#X msg 94 110 speaker-3 \$1 \$2;
#X msg 94 130 speaker-4 \$1 \$2;
#X msg 94 150 speaker-5 \$1 \$2;
#X msg 94 170 speaker-6 \$1 \$2;
#X msg 94 190 speaker-7 \$1 \$2;
#X msg 94 210 speaker-8 \$1 \$2;
#X msg 146 283 cos;
#X msg 147 311 sqrt;
#X text 145 255 panning laws:;
#X text 176 282 sine/cosine;
#X text 182 310 square root;
#X msg 144 350 preset 0;
#X msg 144 373 preset 1;
#X text 207 349 8-ch. circle stereo pairs;
#X text 207 372 8-ch. circle center speaker;
#X obj 144 414 cnv 16 87 16 empty empty empty 20 12 0 14 #fc8000 #404040
0;
#N canvas 864 246 634 307 save&recall 0;
#X obj 93 233 outlet;
#X msg 93 60 0;
#X msg 125 60 1;
#X msg 158 60 2;
#X msg 93 99 save \$1;
#X text 185 63 ...;
#X msg 207 60 20;
#X msg 149 154 0;
#X msg 181 154 1;
#X msg 214 154 2;
#X text 241 157 ...;
#X msg 263 154 20;
#X msg 149 193 recall \$1;
#X text 249 93 save & recall up to 20 presets \, presets will be saved
with the parrent patch;
#X connect 1 0 4 0;
#X connect 2 0 4 0;
#X connect 3 0 4 0;
#X connect 4 0 0 0;
#X connect 6 0 4 0;
#X connect 7 0 12 0;
#X connect 8 0 12 0;
#X connect 9 0 12 0;
#X connect 11 0 12 0;
#X connect 12 0 0 0;
#X restore 144 413 pd save&recall;
#X connect 1 0 3 0;
#X connect 2 0 0 0;
#X connect 3 0 2 0;
#X connect 4 0 3 1;
#X connect 13 0 0 0;
#X connect 14 0 0 0;
#X connect 18 0 0 0;
#X connect 19 0 0 0;
#X connect 23 0 0 0;
#X restore 210 370 pd control-messages;
#X obj 92 268 hsl 100 12 -1 1 0 0 empty empty empty -2 -8 0 10 #fcfcfc
#000000 #000000 0 1;
#X floatatom 89 332 5 0 0 0 - - - 0;
#X obj 89 352 sig~;
#X obj 136 224 vsl 12 100 -1 1 0 0 empty empty empty 0 -9 0 10 #fcfcfc
#000000 #000000 0 1;
#X floatatom 135 332 5 0 0 0 - - - 0;
#X obj 135 352 sig~;
#X text 96 314 x;
#X text 154 315 y;
#X floatatom 177 333 5 -1 1 0 - - - 0;
#X obj 177 353 sig~;
#N canvas 740 417 503 292 message-out 0;
#X obj 30 33 inlet;
#X msg 30 60 speaker-1 -0.42623 0.909836 \, speaker-2 0.418033 0.909836
\, speaker-3 -0.909836 0.426229 \, speaker-4 0.901639 0.426229 \, speaker-5
-0.909836 -0.418033 \, speaker-6 0.901639 -0.418033 \, speaker-7 -0.42623
-0.901639 \, speaker-8 0.418033 -0.901639 \, cos \,;
#X connect 0 0 1 0;
#X restore 210 434 pd message-out;
#X obj 62 393 pp.spat8~;
#A saved;
#X obj 61 475 pp.out-8~;
#A saved;
#X obj 825 372 loadbang;
#X obj 825 394 tgl 15 0 empty empty empty 17 7 0 10 #fcfcfc #000000
#000000 0 1;
#X obj 775 453 snapshot~;
#X floatatom 775 476 5 0 0 0 - - - 0;
#X obj 825 414 metro 10;
#X obj 61 198 vcf~;
#X msg 181 163 5;
#X obj 181 135 loadbang;
#X obj 120 124 +~ 2;
#X obj 471 371 loadbang;
#X obj 471 393 tgl 15 0 empty empty empty 17 7 0 10 #fcfcfc #000000
#000000 0 1;
#X obj 404 450 snapshot~;
#X floatatom 404 473 5 0 0 0 - - - 0;
#X obj 471 413 metro 10;
#X obj 404 506 osc-tester, f 61;
#X obj 120 154 *~ 5000;
#X obj 749 396 osc~ 0.5;
#X obj 403 50 osc~ 0.5;
#X obj 211 725;
#X obj 58 101 adc~ 1;
#X obj 62 126 inlet~;
#X connect 1 0 13 4;
#X connect 2 0 3 0;
#X connect 3 0 4 0;
#X connect 4 0 13 1;
#X connect 5 0 6 0;
#X connect 6 0 7 0;
#X connect 7 0 13 2;
#X connect 10 0 11 0;
#X connect 11 0 13 3;
#X connect 13 0 14 0;
#X connect 13 1 14 1;
#X connect 13 2 14 2;
#X connect 13 3 14 3;
#X connect 13 4 14 4;
#X connect 13 5 14 5;
#X connect 13 6 14 6;
#X connect 13 7 14 7;
#X connect 13 8 12 0;
#X connect 15 0 16 0;
#X connect 16 0 19 0;
#X connect 17 0 18 0;
#X connect 18 0 29 7;
#X connect 19 0 17 0;
#X connect 20 0 13 0;
#X connect 21 0 20 2;
#X connect 22 0 21 0;
#X connect 23 0 30 0;
#X connect 24 0 25 0;
#X connect 25 0 28 0;
#X connect 26 0 27 0;
#X connect 27 0 29 0;
#X connect 28 0 26 0;
#X connect 30 0 20 1;
#X connect 31 0 17 0;
#X connect 32 0 26 0;
#X connect 32 0 23 0;
#X connect 35 0 20 0;
