#N canvas 2602 266 946 960 12;
#X obj 625 340 *~;
#X obj 643 303 line~;
#X obj 95 358 mtof;
#X floatatom 95 427 5 0 0 0 - - - 0;
#X obj 95 390 / 1.01852;
#X obj 95 534 osc~;
#X obj 155 534 osc~;
#X obj 155 498 * 2;
#X floatatom 114 632 5 0 1 0 - - - 0;
#X obj 96 664 *~;
#X floatatom 174 632 5 0 1 0 - - - 0;
#X obj 156 664 *~;
#X floatatom 243 632 5 0 1 0 - - - 0;
#X obj 225 664 *~;
#X obj 114 575 r init;
#X obj 96 704 send~ to_dac;
#X obj 624 125 receive~ to_dac;
#X msg 174 606 0.05;
#X msg 243 605 0.05;
#X obj 180 256 sel 0;
#X msg 180 290 0;
#X msg 214 290 1;
#X obj 69 135 poly 1 1;
#X obj 180 389 s to_line;
#X obj 643 270 r to_line;
#X msg 241 342 \$1 20;
#X obj 755 452 env~;
#X obj 755 478 - 100;
#X obj 758 526 vu 15 120 empty empty -1 -8 0 10 #404040 #000000 1 0;
#X obj 624 383 clip~ -0.9 0.9;
#X msg 181 342 \$1 20;
#X obj 226 478 * 3;
#X obj 226 536 osc~;
#X floatatom 505 636 5 0 1 0 - - - 0;
#X obj 487 668 *~;
#X msg 505 609 0.05;
#X obj 488 540 osc~;
#X obj 488 482 / 2;
#X msg 114 606 0.2;
#X floatatom 323 632 5 0 1 0 - - - 0;
#X obj 305 664 *~;
#X msg 323 605 0.05;
#X obj 306 536 osc~;
#X obj 306 478 expr ($f1*3)*0.99;
#X text 52 31 deep \, dark bass;
#X obj 55 95 inlet;
#X obj 144 95 inlet;
#X obj 601 463 outlet~;
#X connect 0 0 29 0;
#X connect 1 0 0 1;
#X connect 2 0 4 0;
#X connect 3 0 5 0;
#X connect 3 0 7 0;
#X connect 3 0 31 0;
#X connect 3 0 37 0;
#X connect 3 0 43 0;
#X connect 4 0 3 0;
#X connect 5 0 9 0;
#X connect 6 0 11 0;
#X connect 7 0 6 0;
#X connect 8 0 9 1;
#X connect 9 0 15 0;
#X connect 10 0 11 1;
#X connect 11 0 15 0;
#X connect 12 0 13 1;
#X connect 13 0 15 0;
#X connect 14 0 38 0;
#X connect 14 0 17 0;
#X connect 14 0 18 0;
#X connect 14 0 41 0;
#X connect 14 0 35 0;
#X connect 16 0 0 0;
#X connect 17 0 10 0;
#X connect 18 0 12 0;
#X connect 19 0 20 0;
#X connect 19 1 21 0;
#X connect 20 0 30 0;
#X connect 21 0 25 0;
#X connect 22 1 2 0;
#X connect 22 2 19 0;
#X connect 24 0 1 0;
#X connect 25 0 23 0;
#X connect 26 0 27 0;
#X connect 27 0 28 0;
#X connect 29 0 26 0;
#X connect 29 0 47 0;
#X connect 30 0 23 0;
#X connect 31 0 32 0;
#X connect 32 0 13 0;
#X connect 33 0 34 1;
#X connect 34 0 15 0;
#X connect 35 0 33 0;
#X connect 36 0 34 0;
#X connect 37 0 36 0;
#X connect 38 0 8 0;
#X connect 39 0 40 1;
#X connect 40 0 15 0;
#X connect 41 0 39 0;
#X connect 42 0 40 0;
#X connect 43 0 42 0;
#X connect 45 0 22 0;
#X connect 46 0 22 1;
