#N canvas 1310 244 1501 1197 10;
#X obj 389 176 soundfiler;
#X obj 388 123 pack s f;
#X obj 472 48 f \$0;
#X obj 472 29 loadbang;
#X obj 390 197 s \$0-samplelength;
#X obj 13 188 s \$0-pos;
#X obj 281 442 *;
#X obj 293 407 r \$0-samplelength;
#X obj 276 363 r \$0-duration;
#X obj 281 469 s \$0-durational;
#X obj 277 386 expr pow($f1 \, 2);
#X obj 510 190 table \$0-sampleL;
#X obj 511 209 table \$0-sampleR;
#X obj 250 415 t b f;
#X obj 56 102 hsl 100 13 0 1 0 0 \$0-duration \$0-duration-r duration 105 7 0 12 #fcfcfc #000000 #202020 0 1;
#X obj 54 66 bng 15 250 50 0 \$0-load uyuyuyttttvvv load 18 8 0 14 #fcfcfc #000000 #000000;
#X symbolatom 53 83 33 0 0 0 - \$0-filename-r \$0-filename 0;
#X obj 423 406 loadbang;
#X obj 461 482 s \$0-duration-r;
#X obj 425 425 t b b b b;
#X obj 378 229 s \$0-filename-r;
#X obj 17 -4 inlet start-position(0->1);
#X obj 16 18 clip 0 1;
#X obj 239 184 808_state \$1/samplefile;
#X obj 251 302 808_state \$1/duration;
#X obj 249 279 r \$0-duration;
#X obj 251 325 s \$0-duration-r;
#X floatatom 108 65 8 0 0 1 sec \$0-timesec ytiuyretiuytreiuyteriurrrrr 0;
#X obj 74 343 r \$0-durational;
#X obj 27 240 r \$0-pos;
#X obj 28 326 *;
#X obj 45 291 r \$0-samplelength;
#X msg 204 4 0;
#X msg 239 4 0.25;
#X msg 280 6 0.5;
#X msg 312 9 0.625;
#X msg 356 11 0.75;
#X msg 390 10 0.875;
#X msg 459 460 1;
#X obj 164 625 outlet~;
#X obj 30 629 outlet~;
#X obj 27 517 tabplay~ \$0-sampleL;
#X obj 161 517 tabplay~ \$0-sampleR;
#X msg 30 480 \$1 \$2;
#X obj 30 457 pack 0 0;
#X obj 184 67 hsl 60 11 0 1 0 0 \$0-gain \$0-gain-r gain 2 5 0 10 #fcfcfc #000000 #000000 0 1;
#X obj 392 276 r \$0-gain;
#X obj 392 299 808_state \$1/gain;
#X obj 392 322 s \$0-gain-r;
#N canvas 0 22 672 573 gain 0;
#X obj 168 300 exp;
#X obj 168 252 *;
#X obj 168 275 +;
#X obj 246 232 log;
#X obj 342 229 log;
#X obj 271 268 t b f;
#X obj 271 290 -;
#X obj 247 203 f 0.1;
#X obj 343 204 f 10;
#X msg 169 325 \$1 5;
#X obj 166 225 r \$0-gain;
#X obj 257 59 loadbang;
#X obj 258 90 t b b;
#X msg 257 115 0.499;
#X obj 259 136 s \$0-gain-r;
#X obj 168 348 vline~;
#X obj 168 381 outlet~;
#X connect 0 0 9 0;
#X connect 1 0 2 0;
#X connect 2 0 0 0;
#X connect 3 0 2 1;
#X connect 3 0 5 0;
#X connect 4 0 6 0;
#X connect 5 0 6 0;
#X connect 5 1 6 1;
#X connect 6 0 1 1;
#X connect 7 0 3 0;
#X connect 8 0 4 0;
#X connect 9 0 15 0;
#X connect 10 0 1 0;
#X connect 11 0 12 0;
#X connect 12 0 13 0;
#X connect 12 1 7 0;
#X connect 12 1 8 0;
#X connect 13 0 14 0;
#X connect 15 0 16 0;
#X restore 187 542 pd gain;
#X obj 26 574 *~;
#X obj 161 576 *~;
#X obj 29 265 t f b;
#X obj 22 372 t f b;
#X obj 21 429 f;
#X obj 51 401 delay 5;
#X obj 29 603 *~;
#X obj 162 599 *~;
#X msg 137 446 0 5 \, 1 5 5;
#X obj 135 474 vline~;
#X obj 544 351 r \$0-samplelength;
#X obj 546 376 / 44100;
#X obj 545 399 s \$0-timesec;
#X obj 544 21 inlet;
#X obj 550 69 clip 0 1;
#X obj 553 94 s \$0-duration-r;
#X obj 547 44 route duration gain;
#X obj 634 70 clip 0 1;
#X obj 652 94 s \$0-gain-r;
#N canvas 0 22 446 367 change-symbol 0;
#X obj 243 219 symbol;
#X obj 250 110 t a a;
#X obj 241 166 t b;
#X obj 242 245 t a a;
#X obj 253 84 inlet;
#X obj 243 288 outlet;
#X obj 94 142 sel teriyaki-anarchy-saki;
#X connect 0 0 3 0;
#X connect 1 0 6 0;
#X connect 1 1 0 1;
#X connect 2 0 0 0;
#X connect 3 0 5 0;
#X connect 3 1 6 1;
#X connect 4 0 1 0;
#X connect 6 1 2 0;
#X restore 381 93 pd change-symbol;
#X obj 277 549 outlet;
#X msg 388 146 read -resize \$1 \$2-sampleL \$2-sampleR;
#X msg 287 70 symbol ../samples/campfire-ambience.wav;
#X connect 0 0 4 0;
#X connect 1 0 71 0;
#X connect 2 0 1 1;
#X connect 3 0 2 0;
#X connect 3 0 72 0;
#X connect 6 0 9 0;
#X connect 7 0 6 0;
#X connect 8 0 10 0;
#X connect 10 0 13 0;
#X connect 13 0 6 0;
#X connect 13 1 6 1;
#X connect 17 0 19 0;
#X connect 19 2 38 0;
#X connect 21 0 22 0;
#X connect 22 0 5 0;
#X connect 23 0 69 0;
#X connect 24 0 26 0;
#X connect 25 0 24 1;
#X connect 28 0 44 1;
#X connect 29 0 52 0;
#X connect 30 0 53 0;
#X connect 31 0 30 1;
#X connect 32 0 22 0;
#X connect 33 0 22 0;
#X connect 34 0 22 0;
#X connect 35 0 22 0;
#X connect 36 0 22 0;
#X connect 37 0 22 0;
#X connect 38 0 18 0;
#X connect 41 0 50 0;
#X connect 42 0 51 0;
#X connect 42 1 70 0;
#X connect 43 0 41 0;
#X connect 43 0 42 0;
#X connect 44 0 43 0;
#X connect 46 0 47 1;
#X connect 47 0 48 0;
#X connect 49 0 50 1;
#X connect 49 0 51 1;
#X connect 50 0 56 0;
#X connect 51 0 57 0;
#X connect 52 0 30 0;
#X connect 52 1 58 0;
#X connect 53 0 54 1;
#X connect 53 1 55 0;
#X connect 54 0 44 0;
#X connect 55 0 54 0;
#X connect 56 0 40 0;
#X connect 57 0 39 0;
#X connect 58 0 59 0;
#X connect 59 0 56 1;
#X connect 59 0 57 1;
#X connect 60 0 61 0;
#X connect 61 0 62 0;
#X connect 63 0 66 0;
#X connect 64 0 65 0;
#X connect 66 0 64 0;
#X connect 66 1 67 0;
#X connect 67 0 68 0;
#X connect 69 0 1 0;
#X connect 71 0 0 0;
#X connect 72 0 69 0;
#X connect 72 0 23 1;
#X coords 0 -1 1 1 210 70 1 50 50;
