#N canvas 55 35 1806 1428 12;
#X declare -path turing;
#X declare -path mix;
#X declare -path fmdrone;
#X declare -path DIY2;
#X declare -path misc;
#X obj 249 937 cnv 15 118 17 empty empty empty 20 12 0 14 #fc8000 #404040 0;
#N canvas 561 960 423 472 control-messages 0;
#X obj 70 439 outlet;
#X floatatom 70 12 5 -1 1 0 - - - 0;
#X msg 70 56 speaker-1 \$1 \$2;
#X obj 70 35 pack 0 0;
#X floatatom 115 12 5 -1 1 0 - - - 0;
#X text 140 33 speaker position x \, y (-1 \, 1);
#X msg 93 90 speaker-2 \$1 \$2;
#X msg 94 110 speaker-3 \$1 \$2;
#X msg 94 130 speaker-4 \$1 \$2;
#X msg 94 150 speaker-5 \$1 \$2;
#X msg 94 170 speaker-6 \$1 \$2;
#X msg 94 190 speaker-7 \$1 \$2;
#X msg 94 210 speaker-8 \$1 \$2;
#X msg 146 283 cos;
#X msg 147 311 sqrt;
#X text 145 255 panning laws:;
#X text 176 282 sine/cosine;
#X text 182 310 square root;
#X msg 144 350 preset 0;
#X msg 144 373 preset 1;
#X text 207 349 8-ch. circle stereo pairs;
#X text 207 372 8-ch. circle center speaker;
#X obj 144 414 cnv 16 87 16 empty empty empty 20 12 0 14 #fc8000 #404040 0;
#N canvas 864 246 634 307 save&recall 0;
#X obj 93 233 outlet;
#X msg 93 60 0;
#X msg 125 60 1;
#X msg 158 60 2;
#X msg 93 99 save \$1;
#X text 185 63 ...;
#X msg 207 60 20;
#X msg 149 154 0;
#X msg 181 154 1;
#X msg 214 154 2;
#X text 241 157 ...;
#X msg 263 154 20;
#X msg 149 193 recall \$1;
#X text 249 93 save & recall up to 20 presets \, presets will be saved with the parrent patch;
#X connect 1 0 4 0;
#X connect 2 0 4 0;
#X connect 3 0 4 0;
#X connect 4 0 0 0;
#X connect 6 0 4 0;
#X connect 7 0 12 0;
#X connect 8 0 12 0;
#X connect 9 0 12 0;
#X connect 11 0 12 0;
#X connect 12 0 0 0;
#X restore 144 413 pd save&recall;
#X connect 1 0 3 0;
#X connect 2 0 0 0;
#X connect 3 0 2 0;
#X connect 4 0 3 1;
#X connect 13 0 0 0;
#X connect 14 0 0 0;
#X connect 18 0 0 0;
#X connect 19 0 0 0;
#X connect 23 0 0 0;
#X restore 249 937 pd control-messages;
#X floatatom 128 899 5 0 0 0 - - - 0;
#X obj 128 919 sig~;
#X floatatom 174 899 5 0 0 0 - - - 0;
#X obj 174 919 sig~;
#X text 135 881 x;
#X text 193 882 y;
#X floatatom 216 900 5 -1 1 0 - - - 0;
#X obj 216 920 sig~;
#N canvas 740 960 503 292 message-out 0;
#X obj 30 33 inlet;
#X msg 30 60 speaker-1 -0.42623 0.909836 \, speaker-2 0.418033 0.909836 \, speaker-3 -0.909836 0.426229 \, speaker-4 0.901639 0.426229 \, speaker-5 -0.909836 -0.418033 \, speaker-6 0.901639 -0.418033 \, speaker-7 -0.42623 -0.901639 \, speaker-8 0.418033 -0.901639 \, cos \,;
#X connect 0 0 1 0;
#X restore 249 1001 pd message-out;
#X obj 101 960 pp.spat8~;
#A saved;
#X obj 100 1042 pp.out-8~;
#A saved;
#N canvas 0 50 450 250 (subpatch) 0;
#X text 0 0 plugdatainfo <?xml version="1.0" encoding="UTF-8"?> <plugdatainfo/>;
#X coords 0 1 100 -1 1 1 1;
#X restore 0 0 graph;
#X obj 210 247 i;
#X floatatom 182 288 3 0 0 0 - - - 0;
#X floatatom 169 227 5 0 0 0 - - - 0;
#X obj 192 206 bng 15 250 50 0 empty empty empty 17 7 0 10 #fcfcfc #000000 #000000;
#X obj 41 41 bng 30 250 50 0 empty empty Go -28 7 0 20 #c4fcc4 #000000 #000000;
#X obj 249 72 tgl 15 0 empty empty empty 17 7 0 10 #fcfcfc #000000 #000000 0 1;
#X obj 210 166 spigot;
#X floatatom 237 148 5 0 0 1 bpm - - 0;
#X obj 257 92 sel 0 1;
#X obj 278 111 s go;
#X obj 156 129 midiClockOut;
#X obj 257 129 s go;
#X floatatom 182 268 3 0 0 0 - - - 0;
#X obj 210 313 makenote 100 200;
#X msg 286 246 48;
#X msg 317 246 60;
#X obj 431 277 bng 15 250 50 0 empty empty empty 17 7 0 10 #fcfcfc #000000 #000000;
#X msg 255 247 36;
#X floatatom 255 287 5 0 0 0 - - - 0;
#X obj 286 226 loadbang;
#X obj 210 186 euclidRhythm trk11;
#X obj 210 206 turingSeq~ trk11;
#X obj 375 30 turingSeq trk11;
#X obj 210 267 randScales trk11;
#X obj 210 287 + 36;
#X floatatom 169 247 5 0 0 0 - - - 0;
#X obj 431 296 s reset;
#X obj 431 203 expDist flip;
#X floatatom 504 277 7 0 0 0 - - - 0;
#X obj 210 227 * 11;
#X obj 431 163 loadbang;
#X obj 431 183 f 0.25;
#X obj 1113 755 fmdrone1;
#X obj 973 893 cnv 15 118 17 empty empty empty 20 12 0 14 #fc8000 #404040 0;
#N canvas 561 960 423 472 control-messages 0;
#X obj 70 439 outlet;
#X floatatom 70 12 5 -1 1 0 - - - 0;
#X msg 70 56 speaker-1 \$1 \$2;
#X obj 70 35 pack 0 0;
#X floatatom 115 12 5 -1 1 0 - - - 0;
#X text 140 33 speaker position x \, y (-1 \, 1);
#X msg 93 90 speaker-2 \$1 \$2;
#X msg 94 110 speaker-3 \$1 \$2;
#X msg 94 130 speaker-4 \$1 \$2;
#X msg 94 150 speaker-5 \$1 \$2;
#X msg 94 170 speaker-6 \$1 \$2;
#X msg 94 190 speaker-7 \$1 \$2;
#X msg 94 210 speaker-8 \$1 \$2;
#X msg 146 283 cos;
#X msg 147 311 sqrt;
#X text 145 255 panning laws:;
#X text 176 282 sine/cosine;
#X text 182 310 square root;
#X msg 144 350 preset 0;
#X msg 144 373 preset 1;
#X text 207 349 8-ch. circle stereo pairs;
#X text 207 372 8-ch. circle center speaker;
#X obj 144 414 cnv 16 87 16 empty empty empty 20 12 0 14 #fc8000 #404040 0;
#N canvas 864 246 634 307 save&recall 0;
#X obj 93 233 outlet;
#X msg 93 60 0;
#X msg 125 60 1;
#X msg 158 60 2;
#X msg 93 99 save \$1;
#X text 185 63 ...;
#X msg 207 60 20;
#X msg 149 154 0;
#X msg 181 154 1;
#X msg 214 154 2;
#X text 241 157 ...;
#X msg 263 154 20;
#X msg 149 193 recall \$1;
#X text 249 93 save & recall up to 20 presets \, presets will be saved with the parrent patch;
#X connect 1 0 4 0;
#X connect 2 0 4 0;
#X connect 3 0 4 0;
#X connect 4 0 0 0;
#X connect 6 0 4 0;
#X connect 7 0 12 0;
#X connect 8 0 12 0;
#X connect 9 0 12 0;
#X connect 11 0 12 0;
#X connect 12 0 0 0;
#X restore 144 413 pd save&recall;
#X connect 1 0 3 0;
#X connect 2 0 0 0;
#X connect 3 0 2 0;
#X connect 4 0 3 1;
#X connect 13 0 0 0;
#X connect 14 0 0 0;
#X connect 18 0 0 0;
#X connect 19 0 0 0;
#X connect 23 0 0 0;
#X restore 973 893 pd control-messages;
#X floatatom 852 855 5 0 0 0 - - - 0;
#X obj 852 875 sig~;
#X floatatom 898 855 5 0 0 0 - - - 0;
#X obj 898 875 sig~;
#X text 859 837 x;
#X text 917 838 y;
#X floatatom 940 856 5 -1 1 0 - - - 0;
#X obj 940 876 sig~;
#N canvas 740 960 503 292 message-out 0;
#X obj 30 33 inlet;
#X msg 30 60 speaker-1 -0.42623 0.909836 \, speaker-2 0.418033 0.909836 \, speaker-3 -0.909836 0.426229 \, speaker-4 0.901639 0.426229 \, speaker-5 -0.909836 -0.418033 \, speaker-6 0.901639 -0.418033 \, speaker-7 -0.42623 -0.901639 \, speaker-8 0.418033 -0.901639 \, cos \,;
#X connect 0 0 1 0;
#X restore 973 957 pd message-out;
#X obj 825 916 pp.spat8~;
#A saved;
#X obj 824 998 pp.out-8~;
#A saved;
#X obj 790 738 bass_02;
#X obj 792 568 sel 0;
#X obj 792 617 f;
#X obj 792 592 bng 19 250 50 0 empty empty empty 0 -10 0 12 #fcfcfc #000000 #000000;
#X obj 97 309 + 0.5;
#X obj 564 54 bng 19 250 50 0 empty empty empty 0 -10 0 12 #fcfcfc #000000 #000000;
#X obj 590 84 + 1;
#X obj 541 84 f;
#X obj 541 108 % 7;
#X obj 572 935 cnv 15 118 17 empty empty empty 20 12 0 14 #fc8000 #404040 0;
#N canvas 561 960 423 472 control-messages 0;
#X obj 70 439 outlet;
#X floatatom 70 12 5 -1 1 0 - - - 0;
#X msg 70 56 speaker-1 \$1 \$2;
#X obj 70 35 pack 0 0;
#X floatatom 115 12 5 -1 1 0 - - - 0;
#X text 140 33 speaker position x \, y (-1 \, 1);
#X msg 93 90 speaker-2 \$1 \$2;
#X msg 94 110 speaker-3 \$1 \$2;
#X msg 94 130 speaker-4 \$1 \$2;
#X msg 94 150 speaker-5 \$1 \$2;
#X msg 94 170 speaker-6 \$1 \$2;
#X msg 94 190 speaker-7 \$1 \$2;
#X msg 94 210 speaker-8 \$1 \$2;
#X msg 146 283 cos;
#X msg 147 311 sqrt;
#X text 145 255 panning laws:;
#X text 176 282 sine/cosine;
#X text 182 310 square root;
#X msg 144 350 preset 0;
#X msg 144 373 preset 1;
#X text 207 349 8-ch. circle stereo pairs;
#X text 207 372 8-ch. circle center speaker;
#X obj 144 414 cnv 16 87 16 empty empty empty 20 12 0 14 #fc8000 #404040 0;
#N canvas 864 246 634 307 save&recall 0;
#X obj 93 233 outlet;
#X msg 93 60 0;
#X msg 125 60 1;
#X msg 158 60 2;
#X msg 93 99 save \$1;
#X text 185 63 ...;
#X msg 207 60 20;
#X msg 149 154 0;
#X msg 181 154 1;
#X msg 214 154 2;
#X text 241 157 ...;
#X msg 263 154 20;
#X msg 149 193 recall \$1;
#X text 249 93 save & recall up to 20 presets \, presets will be saved with the parrent patch;
#X connect 1 0 4 0;
#X connect 2 0 4 0;
#X connect 3 0 4 0;
#X connect 4 0 0 0;
#X connect 6 0 4 0;
#X connect 7 0 12 0;
#X connect 8 0 12 0;
#X connect 9 0 12 0;
#X connect 11 0 12 0;
#X connect 12 0 0 0;
#X restore 144 413 pd save&recall;
#X connect 1 0 3 0;
#X connect 2 0 0 0;
#X connect 3 0 2 0;
#X connect 4 0 3 1;
#X connect 13 0 0 0;
#X connect 14 0 0 0;
#X connect 18 0 0 0;
#X connect 19 0 0 0;
#X connect 23 0 0 0;
#X restore 572 935 pd control-messages;
#X floatatom 451 897 5 0 0 0 - - - 0;
#X obj 451 917 sig~;
#X floatatom 497 897 5 0 0 0 - - - 0;
#X obj 497 917 sig~;
#X text 458 879 x;
#X text 516 880 y;
#X floatatom 539 898 5 -1 1 0 - - - 0;
#X obj 539 918 sig~;
#N canvas 740 960 503 292 message-out 0;
#X obj 30 33 inlet;
#X msg 30 60 speaker-1 -0.42623 0.909836 \, speaker-2 0.418033 0.909836 \, speaker-3 -0.909836 0.426229 \, speaker-4 0.901639 0.426229 \, speaker-5 -0.909836 -0.418033 \, speaker-6 0.901639 -0.418033 \, speaker-7 -0.42623 -0.901639 \, speaker-8 0.418033 -0.901639 \, cos \,;
#X connect 0 0 1 0;
#X restore 572 999 pd message-out;
#X obj 424 958 pp.spat8~;
#A saved;
#X obj 423 1040 pp.out-8~;
#A saved;
#X obj 792 544 random 10;
#X obj 817 697 noteout 1;
#X obj 203 344 noteout 2;
#X obj 792 665 makenote 100 1000;
#X obj 451 822 loadbang;
#X msg 451 850 1;
#X obj 155 817 loadbang;
#X msg 128 855 -1;
#X msg 174 860 1;
#X obj 565 26 r bitflip;
#X obj 878 779 loadbang;
#X msg 854 810 0;
#X msg 896 810 1;
#X obj 20 414 s start;
#X obj 249 12 r start;
#X floatatom 716 746 5 0 15 0 - - - 0;
#X msg 722 816 volume \$1;
#X text 757 784 db;
#X obj 250 685 *~;
#X obj 306 597 r \$0-note-on-off;
#X obj 248 651 *~ 0.4;
#X msg 44 214 1;
#X msg 75 213 0;
#X obj 74 192 delay 200;
#X obj 45 165 t b b;
#X obj 43 248 s \$0-note-on-off;
#X msg 325 832 volume 100;
#X obj 326 805 loadbang;
#X obj 801 17 declare -path turing;
#X obj 800 43 declare -path mix;
#X obj 798 69 declare -path fmdrone;
#X obj 800 96 declare -path DIY2;
#X obj 298 505 syn-sinesumOsc;
#X obj 306 627 eee-adsr~;
#X obj 226 715 st-pureverb4;
#X obj 34 382 osc, f 79;
#X obj 798 121 declare -path misc;
#X obj 249 42 bng 19 250 50 0 empty empty empty 0 -10 0 12 #fcfcfc #000000 #000000;
#X obj 1145 729 bng 19 250 50 0 empty empty empty 0 -10 0 12 #fcfcfc #000000 #000000;
#X text 346 246 Octave;
#X obj 102 510 syn-simpleFM;
#X obj 298 447 s bitflip;
#X obj 918 396 smp-play2;
#X msg 1161 358 duration \$1;
#X floatatom 1161 317 5 0 0 0 - - - 0;
#X obj 1161 336 / 100;
#X floatatom 1245 318 5 0 0 0 - - - 0;
#X obj 1245 337 / 100;
#X msg 1244 358 gain \$1;
#X msg 879 342 0;
#X msg 939 348 0.5;
#X obj 924 491 dac~ 1 2;
#X obj 85 126 spigot;
#X obj 249 461 mtof;
#X msg 1245 292 80;
#X obj 1363 878 cnv 15 118 17 empty empty empty 20 12 0 14 #fc8000 #404040 0;
#N canvas 561 960 423 472 control-messages 0;
#X obj 70 439 outlet;
#X floatatom 70 12 5 -1 1 0 - - - 0;
#X msg 70 56 speaker-1 \$1 \$2;
#X obj 70 35 pack 0 0;
#X floatatom 115 12 5 -1 1 0 - - - 0;
#X text 140 33 speaker position x \, y (-1 \, 1);
#X msg 93 90 speaker-2 \$1 \$2;
#X msg 94 110 speaker-3 \$1 \$2;
#X msg 94 130 speaker-4 \$1 \$2;
#X msg 94 150 speaker-5 \$1 \$2;
#X msg 94 170 speaker-6 \$1 \$2;
#X msg 94 190 speaker-7 \$1 \$2;
#X msg 94 210 speaker-8 \$1 \$2;
#X msg 146 283 cos;
#X msg 147 311 sqrt;
#X text 145 255 panning laws:;
#X text 176 282 sine/cosine;
#X text 182 310 square root;
#X msg 144 350 preset 0;
#X msg 144 373 preset 1;
#X text 207 349 8-ch. circle stereo pairs;
#X text 207 372 8-ch. circle center speaker;
#X obj 144 414 cnv 16 87 16 empty empty empty 20 12 0 14 #fc8000 #404040 0;
#N canvas 864 246 634 307 save&recall 0;
#X obj 93 233 outlet;
#X msg 93 60 0;
#X msg 125 60 1;
#X msg 158 60 2;
#X msg 93 99 save \$1;
#X text 185 63 ...;
#X msg 207 60 20;
#X msg 149 154 0;
#X msg 181 154 1;
#X msg 214 154 2;
#X text 241 157 ...;
#X msg 263 154 20;
#X msg 149 193 recall \$1;
#X text 249 93 save & recall up to 20 presets \, presets will be saved with the parrent patch;
#X connect 1 0 4 0;
#X connect 2 0 4 0;
#X connect 3 0 4 0;
#X connect 4 0 0 0;
#X connect 6 0 4 0;
#X connect 7 0 12 0;
#X connect 8 0 12 0;
#X connect 9 0 12 0;
#X connect 11 0 12 0;
#X connect 12 0 0 0;
#X restore 144 413 pd save&recall;
#X connect 1 0 3 0;
#X connect 2 0 0 0;
#X connect 3 0 2 0;
#X connect 4 0 3 1;
#X connect 13 0 0 0;
#X connect 14 0 0 0;
#X connect 18 0 0 0;
#X connect 19 0 0 0;
#X connect 23 0 0 0;
#X restore 1363 878 pd control-messages;
#X floatatom 1242 840 5 0 0 0 - - - 0;
#X obj 1242 860 sig~;
#X floatatom 1288 840 5 0 0 0 - - - 0;
#X obj 1288 860 sig~;
#X text 1249 822 x;
#X text 1307 823 y;
#X floatatom 1330 841 5 -1 1 0 - - - 0;
#X obj 1330 861 sig~;
#N canvas 740 960 503 292 message-out 0;
#X obj 30 33 inlet;
#X msg 30 60 speaker-1 -0.42623 0.909836 \, speaker-2 0.418033 0.909836 \, speaker-3 -0.909836 0.426229 \, speaker-4 0.901639 0.426229 \, speaker-5 -0.909836 -0.418033 \, speaker-6 0.901639 -0.418033 \, speaker-7 -0.42623 -0.901639 \, speaker-8 0.418033 -0.901639 \, cos \,;
#X connect 0 0 1 0;
#X restore 1363 942 pd message-out;
#X obj 1215 901 pp.spat8~;
#A saved;
#X obj 1214 983 pp.out-8~;
#A saved;
#X obj 1263 767 / 360;
#X floatatom 1262 743 5 0 0 0 - - - 0;
#X obj 1280 803 * -1;
#X obj 1211 644 smp-play2;
#X msg 1415 616 duration \$1;
#X floatatom 1415 575 5 0 0 0 - - - 0;
#X obj 1415 594 / 100;
#X floatatom 1499 576 5 0 0 0 - - - 0;
#X obj 1499 595 / 100;
#X msg 1498 616 gain \$1;
#X msg 1192 597 0;
#X msg 1240 545 symbol ../samples/bird.aiff;
#X msg 942 294 symbol ../samples/campfire-ambience.wav;
#X msg 1497 550 100;
#X obj 979 212 r start;
#X obj 1272 460 r start;
#X obj 160 434 / 360;
#X msg 160 459 0 \$1;
#X obj 570 431 s lfo;
#X obj 101 787 adc~ 3;
#X obj 424 785 adc~ 4;
#X msg 640 855 volume \$1;
#X obj 641 807 - 50 \$1;
#X obj 641 831 - 50;
#X obj 664 268 snapshot~;
#X floatatom 642 295 5 0 0 0 - - - 0;
#X msg 642 318 1 \$1;
#X obj 664 244 osc~ 0.1;
#X floatatom 693 295 5 0 0 0 - - - 0;
#X obj 693 318 * -1;
#X msg 693 342 2 \$1;
#X obj 761 269 snapshot~;
#X floatatom 739 296 5 0 0 0 - - - 0;
#X floatatom 790 296 5 0 0 0 - - - 0;
#X obj 790 319 * -1;
#X msg 790 374 2 \$1;
#X msg 739 319 0 \$1;
#X obj 761 245 osc~ 0.05;
#X obj 630 110 % 3;
#X obj 630 134 sel 0 1 2;
#X obj 790 343 + 1;
#X obj 716 721 * 100;
#X obj 722 782 + 85;
#X obj 1479 919 loadbang;
#X msg 1479 943 volume 85;
#X obj 792 641 - 12;
#X connect 1 0 11 4;
#X connect 2 0 3 0;
#X connect 3 0 11 1;
#X connect 4 0 5 0;
#X connect 5 0 11 2;
#X connect 8 0 9 0;
#X connect 9 0 11 3;
#X connect 11 0 12 0;
#X connect 11 1 12 1;
#X connect 11 2 12 2;
#X connect 11 3 12 3;
#X connect 11 4 12 4;
#X connect 11 5 12 5;
#X connect 11 6 12 6;
#X connect 11 7 12 7;
#X connect 11 8 10 0;
#X connect 14 0 26 0;
#X connect 14 0 37 0;
#X connect 14 0 117 1;
#X connect 16 0 134 1;
#X connect 18 0 117 0;
#X connect 19 0 22 0;
#X connect 19 0 20 1;
#X connect 20 0 34 0;
#X connect 22 0 25 0;
#X connect 22 1 23 0;
#X connect 24 2 20 0;
#X connect 24 2 82 0;
#X connect 24 2 134 0;
#X connect 24 2 174 0;
#X connect 24 2 181 0;
#X connect 24 3 21 0;
#X connect 26 0 64 0;
#X connect 26 0 117 3;
#X connect 27 0 84 0;
#X connect 27 0 135 0;
#X connect 27 1 84 1;
#X connect 28 0 32 0;
#X connect 28 0 38 1;
#X connect 29 0 32 0;
#X connect 29 0 38 1;
#X connect 30 0 40 0;
#X connect 31 0 32 0;
#X connect 31 0 38 1;
#X connect 33 0 28 0;
#X connect 34 0 17 0;
#X connect 34 0 35 0;
#X connect 34 0 117 7;
#X connect 35 0 16 0;
#X connect 35 0 43 0;
#X connect 35 0 117 4;
#X connect 37 0 15 0;
#X connect 37 0 38 0;
#X connect 38 0 27 0;
#X connect 38 0 62 1;
#X connect 41 0 30 0;
#X connect 41 1 42 0;
#X connect 43 0 14 0;
#X connect 43 0 39 0;
#X connect 44 0 45 0;
#X connect 45 0 41 0;
#X connect 46 0 148 0;
#X connect 48 0 58 4;
#X connect 49 0 50 0;
#X connect 50 0 58 1;
#X connect 51 0 52 0;
#X connect 52 0 58 2;
#X connect 55 0 56 0;
#X connect 56 0 58 3;
#X connect 58 0 59 0;
#X connect 58 1 59 1;
#X connect 58 2 59 2;
#X connect 58 3 59 3;
#X connect 58 4 59 4;
#X connect 58 5 59 5;
#X connect 58 6 59 6;
#X connect 58 7 59 7;
#X connect 58 8 57 0;
#X connect 60 0 58 0;
#X connect 61 0 63 0;
#X connect 62 0 195 0;
#X connect 63 0 62 0;
#X connect 64 0 117 2;
#X connect 65 0 67 0;
#X connect 66 0 67 1;
#X connect 67 0 66 0;
#X connect 67 0 68 0;
#X connect 67 0 188 0;
#X connect 68 0 36 0;
#X connect 70 0 80 4;
#X connect 71 0 72 0;
#X connect 72 0 80 1;
#X connect 73 0 74 0;
#X connect 74 0 80 2;
#X connect 77 0 78 0;
#X connect 78 0 80 3;
#X connect 80 0 81 0;
#X connect 80 1 81 1;
#X connect 80 2 81 2;
#X connect 80 3 81 3;
#X connect 80 4 81 4;
#X connect 80 5 81 5;
#X connect 80 6 81 6;
#X connect 80 7 81 7;
#X connect 80 8 79 0;
#X connect 82 0 61 0;
#X connect 85 0 60 0;
#X connect 85 0 46 0;
#X connect 85 0 83 0;
#X connect 85 1 83 1;
#X connect 85 1 60 1;
#X connect 86 0 87 0;
#X connect 87 0 71 0;
#X connect 87 0 73 0;
#X connect 88 0 89 0;
#X connect 88 0 90 0;
#X connect 89 0 2 0;
#X connect 90 0 4 0;
#X connect 91 0 65 0;
#X connect 92 0 93 0;
#X connect 92 0 94 0;
#X connect 93 0 49 0;
#X connect 94 0 51 0;
#X connect 96 0 119 0;
#X connect 97 0 172 0;
#X connect 97 0 192 0;
#X connect 98 0 149 8;
#X connect 100 0 116 0;
#X connect 100 0 116 1;
#X connect 101 0 115 0;
#X connect 102 0 100 0;
#X connect 103 0 107 0;
#X connect 104 0 107 0;
#X connect 105 0 104 0;
#X connect 106 0 103 0;
#X connect 106 1 105 0;
#X connect 108 0 12 8;
#X connect 108 0 81 8;
#X connect 108 0 59 8;
#X connect 109 0 108 0;
#X connect 114 0 102 0;
#X connect 115 0 100 1;
#X connect 116 0 12 0;
#X connect 116 0 81 1;
#X connect 117 0 95 0;
#X connect 117 1 191 0;
#X connect 117 2 120 0;
#X connect 117 2 123 0;
#X connect 117 3 150 0;
#X connect 117 3 166 0;
#X connect 117 4 168 0;
#X connect 119 0 19 0;
#X connect 120 0 46 1;
#X connect 122 0 102 0;
#X connect 124 0 133 0;
#X connect 124 1 133 1;
#X connect 124 2 131 0;
#X connect 125 0 124 2;
#X connect 126 0 127 0;
#X connect 127 0 125 0;
#X connect 128 0 129 0;
#X connect 129 0 130 0;
#X connect 130 0 124 2;
#X connect 131 0 124 0;
#X connect 132 0 124 0;
#X connect 134 0 106 0;
#X connect 135 0 114 0;
#X connect 135 0 122 0;
#X connect 136 0 128 0;
#X connect 138 0 148 4;
#X connect 139 0 140 0;
#X connect 140 0 148 1;
#X connect 141 0 142 0;
#X connect 142 0 148 2;
#X connect 145 0 146 0;
#X connect 146 0 148 3;
#X connect 148 0 149 0;
#X connect 148 1 149 1;
#X connect 148 2 149 2;
#X connect 148 3 149 3;
#X connect 148 4 149 4;
#X connect 148 5 149 5;
#X connect 148 6 149 6;
#X connect 148 7 149 7;
#X connect 148 8 147 0;
#X connect 150 0 139 0;
#X connect 150 0 152 0;
#X connect 151 0 150 0;
#X connect 152 0 141 0;
#X connect 153 0 148 0;
#X connect 153 2 160 0;
#X connect 154 0 153 2;
#X connect 155 0 156 0;
#X connect 156 0 154 0;
#X connect 157 0 158 0;
#X connect 158 0 159 0;
#X connect 159 0 153 2;
#X connect 160 0 153 0;
#X connect 161 0 153 1;
#X connect 162 0 124 1;
#X connect 163 0 157 0;
#X connect 164 0 131 0;
#X connect 164 0 136 0;
#X connect 164 0 162 0;
#X connect 165 0 160 0;
#X connect 165 0 163 0;
#X connect 165 0 161 0;
#X connect 166 0 167 0;
#X connect 167 0 122 1;
#X connect 169 0 11 0;
#X connect 170 0 80 0;
#X connect 171 0 81 8;
#X connect 171 0 12 8;
#X connect 172 0 173 0;
#X connect 173 0 171 0;
#X connect 174 0 175 0;
#X connect 174 0 178 0;
#X connect 175 0 176 0;
#X connect 176 0 122 1;
#X connect 176 0 114 1;
#X connect 177 0 174 0;
#X connect 178 0 179 0;
#X connect 179 0 180 0;
#X connect 180 0 122 1;
#X connect 181 0 182 0;
#X connect 181 0 183 0;
#X connect 182 0 186 0;
#X connect 183 0 184 0;
#X connect 184 0 190 0;
#X connect 185 0 116 2;
#X connect 186 0 114 1;
#X connect 187 0 181 0;
#X connect 188 0 189 0;
#X connect 189 0 31 0;
#X connect 189 1 28 0;
#X connect 189 2 29 0;
#X connect 190 0 185 0;
#X connect 191 0 97 0;
#X connect 192 0 98 0;
#X connect 193 0 194 0;
#X connect 194 0 149 8;
#X connect 195 0 85 0;
