#N canvas 613 622 1369 476 10;
#X obj 133 42 bng 50 250 50 0 empty empty start 53 7 0 10 #00fc04 #000000 #000000;
#X obj 123 322 r oscmsg;
#X obj 123 344 packOSC;
#X obj 63 398 udpsend;
#X obj 233 42 bng 50 250 50 0 empty empty stop 53 7 0 10 #fc0400 #000000 #000000;
#X msg 103 297 disconnect;
#X obj 391 117 vsl 15 128 -5 5 0 0 empty empty empty 0 -9 0 10 #00fc04 #000000 #000000 0 1;
#X obj 371 368 pack \$1 \$2 \$3;
#X obj 371 412 s oscmsg;
#X obj 411 117 vsl 15 128 -5 5 0 0 empty empty empty 0 -9 0 10 #00f8fc #000000 #000000 0 1;
#X obj 371 278 t f b b;
#X obj 431 278 t b f b;
#X obj 491 278 t b b f;
#X obj 371 117 vsl 15 128 -5 5 0 0 empty empty empty 0 -9 0 10 #fc0400 #000000 #000000 0 1;
#X obj 371 329 f;
#X obj 431 329 f;
#X obj 491 329 f;
#X obj 63 420 sel 1;
#X msg 371 390 send /cube/pos \$1 \$2 \$3;
#X obj 661 117 vsl 15 128 0 1 0 0 empty empty empty 0 -9 0 10 #00fc04 #000000 #000000 0 1;
#X obj 641 368 pack \$1 \$2 \$3;
#X obj 641 412 s oscmsg;
#X obj 681 117 vsl 15 128 0 1 0 0 empty empty empty 0 -9 0 10 #00f8fc #000000 #000000 0 1;
#X obj 641 278 t f b b;
#X obj 701 278 t b f b;
#X obj 761 278 t b b f;
#X obj 641 117 vsl 15 128 0 1 0 0 empty empty empty 0 -9 0 10 #fc0400 #000000 #000000 0 1;
#X obj 641 329 f;
#X obj 701 329 f;
#X obj 761 329 f;
#X msg 641 390 send /cube/col \$1 \$2 \$3;
#X msg 655 64 0.5;
#X obj 875 412 s oscmsg;
#X msg 875 390 send /cube/visible \$1;
#X text 438 121 XYZ position;
#X text 708 121 RGB of material;
#X msg 875 64 1;
#X obj 875 127 tgl 15 0 empty empty empty 17 7 0 10 #fcfcfc #000000 #000000 0 1;
#X obj 133 97 s init;
#X obj 385 42 r init;
#X obj 655 42 r init;
#X obj 875 42 r init;
#X obj 63 247 r init;
#X obj 1091 117 vsl 15 128 0 1 0 0 empty empty empty 0 -9 0 10 #00fc04 #000000 #000000 0 1;
#X obj 1071 428 pack \$1 \$2 \$3;
#X obj 1071 472 s oscmsg;
#X obj 1111 117 vsl 15 128 0 1 0 0 empty empty empty 0 -9 0 10 #00f8fc #000000 #000000 0 1;
#X obj 1071 278 t f b b;
#X obj 1131 278 t b f b;
#X obj 1191 278 t b b f;
#X obj 1071 117 vsl 15 128 0 1 0 0 empty empty empty 0 -9 0 10 #fc0400 #000000 #000000 0 1;
#X obj 1071 329 f;
#X obj 1131 329 f;
#X obj 1191 329 f;
#X msg 1085 64 0.5;
#X text 1138 121 RGB of material;
#X obj 1085 42 r init;
#X msg 1071 450 send /sky/horizon \$1 \$2 \$3;
#X obj 1071 381 line;
#X obj 1131 381 line;
#X obj 1191 381 line;
#X msg 1071 351 \$1 200;
#X msg 1131 351 \$1 200;
#X msg 1191 351 \$1 200;
#X obj 336 64 inlet;
#X obj 442 48 inlet;
#X obj 448 81 inlet;
#X obj 603 63 inlet;
#X obj 706 53 inlet;
#X obj 714 82 inlet;
#X obj 1033 70 inlet;
#X obj 1139 57 inlet;
#X obj 132 8 inlet;
#X msg 63 271 connect 192.168.2.134 14000;
#X obj 831 86 inlet;
#X obj 324 468 s oscmsg;
#X msg 323 443 send /cube2/pos \$1 \$2 \$3;
#X obj 133 455 r init;
#X obj 52 618 outlet;
#X msg 385 64 4;
#X obj 140 622 outlet;
#X msg 133 477 listen 12000;
#X obj 133 501 netreceive -u -b;
#X obj 133 524 oscparse;
#X obj 133 546 list trim;
#X obj 140 593 route slider;
#X obj 52 594 route button;
#X obj 1179 81 inlet;
#X obj 231 594 route fm;
#X obj 231 615 outlet;
#X obj 297 596 route wheel;
#X obj 297 617 outlet;
#X obj 378 620 outlet;
#X obj 378 597 route lfo;
#X connect 0 0 38 0;
#X connect 1 0 2 0;
#X connect 2 0 3 0;
#X connect 3 0 17 0;
#X connect 4 0 5 0;
#X connect 5 0 3 0;
#X connect 6 0 11 0;
#X connect 7 0 18 0;
#X connect 7 0 76 0;
#X connect 9 0 12 0;
#X connect 10 0 14 0;
#X connect 10 1 15 0;
#X connect 10 2 16 0;
#X connect 11 0 14 0;
#X connect 11 1 15 0;
#X connect 11 2 16 0;
#X connect 12 0 14 0;
#X connect 12 1 15 0;
#X connect 12 2 16 0;
#X connect 13 0 10 0;
#X connect 14 0 7 0;
#X connect 15 0 7 1;
#X connect 16 0 7 2;
#X connect 18 0 8 0;
#X connect 19 0 24 0;
#X connect 20 0 30 0;
#X connect 22 0 25 0;
#X connect 23 0 27 0;
#X connect 23 1 28 0;
#X connect 23 2 29 0;
#X connect 24 0 27 0;
#X connect 24 1 28 0;
#X connect 24 2 29 0;
#X connect 25 0 27 0;
#X connect 25 1 28 0;
#X connect 25 2 29 0;
#X connect 26 0 23 0;
#X connect 27 0 20 0;
#X connect 28 0 20 1;
#X connect 29 0 20 2;
#X connect 30 0 21 0;
#X connect 31 0 19 0;
#X connect 31 0 22 0;
#X connect 31 0 26 0;
#X connect 33 0 32 0;
#X connect 36 0 37 0;
#X connect 37 0 33 0;
#X connect 39 0 79 0;
#X connect 40 0 31 0;
#X connect 41 0 36 0;
#X connect 42 0 73 0;
#X connect 43 0 48 0;
#X connect 44 0 57 0;
#X connect 46 0 49 0;
#X connect 47 0 51 0;
#X connect 47 1 52 0;
#X connect 47 2 53 0;
#X connect 48 0 51 0;
#X connect 48 1 52 0;
#X connect 48 2 53 0;
#X connect 49 0 51 0;
#X connect 49 1 52 0;
#X connect 49 2 53 0;
#X connect 50 0 47 0;
#X connect 51 0 61 0;
#X connect 52 0 62 0;
#X connect 53 0 63 0;
#X connect 54 0 43 0;
#X connect 54 0 46 0;
#X connect 54 0 50 0;
#X connect 56 0 54 0;
#X connect 57 0 45 0;
#X connect 61 0 58 0;
#X connect 62 0 59 0;
#X connect 63 0 60 0;
#X connect 64 0 13 0;
#X connect 65 0 6 0;
#X connect 66 0 9 0;
#X connect 67 0 26 0;
#X connect 68 0 19 0;
#X connect 69 0 22 0;
#X connect 70 0 50 0;
#X connect 71 0 43 0;
#X connect 72 0 0 0;
#X connect 73 0 3 0;
#X connect 74 0 37 0;
#X connect 76 0 75 0;
#X connect 77 0 81 0;
#X connect 79 0 6 0;
#X connect 79 0 9 0;
#X connect 79 0 13 0;
#X connect 81 0 82 0;
#X connect 82 0 83 0;
#X connect 83 0 84 0;
#X connect 84 0 85 0;
#X connect 84 0 86 0;
#X connect 84 0 88 0;
#X connect 84 0 90 0;
#X connect 84 0 93 0;
#X connect 85 0 80 0;
#X connect 86 0 78 0;
#X connect 87 0 46 0;
#X connect 88 0 89 0;
#X connect 90 0 91 0;
#X connect 93 0 92 0;
